<svg xmlns="http://www.w3.org/2000/svg" width="1920" height="1080" viewBox="0 0 1920 1080"><rect width="100%" height="100%" fill="#0d0d2b" /><circle cx="137" cy="150" r="2.302944504671345" fill="white" opacity="0.6058330880891646" /><circle cx="1187" cy="323" r="2.1740022492215574" fill="white" opacity="0.803380820731718" /><circle cx="1866" cy="673" r="1.0922643391119984" fill="white" opacity="0.7796464315401693" /><circle cx="869" cy="905" r="0.7772698109306235" fill="white" opacity="0.6085117365802867" /><circle cx="1761" cy="953" r="0.6821608123401939" fill="white" opacity="0.9966436172244139" /><circle cx="1820" cy="917" r="0.8775126555404031" fill="white" opacity="0.8057778228942919" /><circle cx="1688" cy="662" r="1.3355874659193856" fill="white" opacity="0.6461264427797442" /><circle cx="1407" cy="350" r="1.275073043275897" fill="white" opacity="0.7888282974920175" /><circle cx="1651" cy="778" r="1.8253801547335202" fill="white" opacity="0.9749614544447517" /><circle cx="1793" cy="777" r="2.4231703389260737" fill="white" opacity="0.7391357158633751" /><circle cx="19" cy="870" r="1.443047033371243" fill="white" opacity="0.8358625697419966" /><circle cx="863" cy="12" r="1.529561289276206" fill="white" opacity="0.6704673334108825" /><circle cx="969" cy="209" r="1.196120746389598" fill="white" opacity="0.8424139442400846" /><circle cx="284" cy="276" r="0.9713859051673164" fill="white" opacity="0.901684140528223" /><circle cx="1816" cy="1045" r="2.131219944986798" fill="white" opacity="0.8606968180865455" /><circle cx="1433" cy="336" r="1.9439337358789999" fill="white" opacity="0.9379351249331881" /><circle cx="569" cy="910" r="1.2686309656292882" fill="white" opacity="0.8972896303331319" /><circle cx="558" cy="612" r="1.4237669979999557" fill="white" opacity="0.6951111345468485" /><circle cx="799" cy="610" r="2.0955425591746915" fill="white" opacity="0.7644069572663593" /><circle cx="1347" cy="312" r="2.2957767068360937" fill="white" opacity="0.6307914586897828" /><circle cx="1705" cy="978" r="1.688116645181611" fill="white" opacity="0.7457006643068834" /><circle cx="1441" cy="347" r="1.3210702908702192" fill="white" opacity="0.9548211317337782" /><circle cx="1021" cy="164" r="2.3436201528497715" fill="white" opacity="0.9067788385177122" /><circle cx="1587" cy="1052" r="1.6524978447185552" fill="white" opacity="0.9814448017743447" /><circle cx="200" cy="641" r="1.1518495106728242" fill="white" opacity="0.6599365878774223" /><circle cx="1110" cy="585" r="1.7582930825832246" fill="white" opacity="0.7556349108143985" /><circle cx="156" cy="353" r="1.4606196076697255" fill="white" opacity="0.8423951053433698" /><circle cx="58" cy="676" r="1.3704405721056752" fill="white" opacity="0.9886229614590277" /><circle cx="1186" cy="1019" r="2.113653319458898" fill="white" opacity="0.7060999998179089" /><circle cx="1581" cy="110" r="0.7964759627824967" fill="white" opacity="0.6191871752924744" /><circle cx="1409" cy="679" r="0.540374098301394" fill="white" opacity="0.6913898987675449" /><circle cx="1231" cy="1063" r="0.8896894693945085" fill="white" opacity="0.9170170019791936" /><circle cx="1411" cy="242" r="2.3447637649235586" fill="white" opacity="0.8722671445223633" /><circle cx="294" cy="694" r="1.515725328218492" fill="white" opacity="0.9887391400054781" /><circle cx="1798" cy="89" r="1.1855754586154723" fill="white" opacity="0.9539906753864532" /><circle cx="789" cy="948" r="2.3101034321166214" fill="white" opacity="0.8752085035343832" /><circle cx="1585" cy="261" r="1.592750607437321" fill="white" opacity="0.611348168553669" /><circle cx="1127" cy="305" r="2.4740112158352243" fill="white" opacity="0.6986964464195597" /><circle cx="995" cy="70" r="1.5769781768964402" fill="white" opacity="0.926281905391317" /><circle cx="1320" cy="704" r="2.2141955342044435" fill="white" opacity="0.790659459611996" /><circle cx="743" cy="102" r="1.110611017721479" fill="white" opacity="0.8254176079810468" /><circle cx="1818" cy="671" r="2.474065163428392" fill="white" opacity="0.6579451528861486" /><circle cx="828" cy="46" r="1.8826324816770146" fill="white" opacity="0.8664069179194468" /><circle cx="908" cy="205" r="0.933055076933841" fill="white" opacity="0.8486120902005305" /><circle cx="1188" cy="851" r="0.6837798104825068" fill="white" opacity="0.7071861512753637" /><circle cx="836" cy="676" r="2.0472887946762808" fill="white" opacity="0.7117431460172724" /><circle cx="700" cy="553" r="2.183458107427618" fill="white" opacity="0.7816508638767715" /><circle cx="1190" cy="773" r="1.983400508746385" fill="white" opacity="0.7178130161037246" /><circle cx="1409" cy="604" r="1.12067505688612" fill="white" opacity="0.6767227780779542" /><circle cx="1527" cy="514" r="2.2883278385323838" fill="white" opacity="0.9004311204315525" /><circle cx="389" cy="36" r="2.3717040039885435" fill="white" opacity="0.9728355196899291" /><circle cx="896" cy="284" r="0.9673344546355724" fill="white" opacity="0.6805620233360942" /><circle cx="1757" cy="101" r="1.4957030539246394" fill="white" opacity="0.689716672046586" /><circle cx="363" cy="816" r="1.8948301995244126" fill="white" opacity="0.9701790537689117" /><circle cx="183" cy="225" r="2.2051258568228818" fill="white" opacity="0.9155162117385798" /><circle cx="188" cy="971" r="1.8407284430656299" fill="white" opacity="0.9735908217848227" /><circle cx="1638" cy="765" r="0.7825242351757773" fill="white" opacity="0.8178335967498634" /><circle cx="1552" cy="10" r="0.721152730013283" fill="white" opacity="0.8923304656460542" /><circle cx="1303" cy="822" r="1.1166367204553838" fill="white" opacity="0.867309370201685" /><circle cx="669" cy="1074" r="2.3835721759417803" fill="white" opacity="0.6760502925008923" /><circle cx="547" cy="53" r="1.7888235995637178" fill="white" opacity="0.6882999510982984" /><circle cx="332" cy="186" r="1.6538812599268922" fill="white" opacity="0.7129907553239865" /><circle cx="114" cy="8" r="1.735566283493677" fill="white" opacity="0.6628192705777036" /><circle cx="44" cy="93" r="1.6976373846103388" fill="white" opacity="0.6609061309708969" /><circle cx="467" cy="776" r="2.1703169295570377" fill="white" opacity="0.6561229941971142" /><circle cx="1203" cy="730" r="1.6406029910542972" fill="white" opacity="0.8317053484552097" /><circle cx="1714" cy="1043" r="1.5328979893209678" fill="white" opacity="0.9838982412398976" /><circle cx="38" cy="196" r="0.8896352807198253" fill="white" opacity="0.6281302977054514" /><circle cx="500" cy="552" r="1.6250571337450108" fill="white" opacity="0.9435705876721755" /><circle cx="337" cy="595" r="1.1511187012667086" fill="white" opacity="0.8847800438381115" /><circle cx="1021" cy="851" r="1.134894539137215" fill="white" opacity="0.996084290887622" /><circle cx="854" cy="60" r="0.9977534860034634" fill="white" opacity="0.6925784161997819" /><circle cx="198" cy="208" r="2.0535383058948" fill="white" opacity="0.9122477856332692" /><circle cx="627" cy="474" r="1.6061051987625967" fill="white" opacity="0.9738410317132579" /><circle cx="526" cy="509" r="0.7500801044114183" fill="white" opacity="0.8521752548999217" /><circle cx="1058" cy="855" r="2.2649591983008817" fill="white" opacity="0.6605688477452647" /><circle cx="857" cy="818" r="1.3224263247284287" fill="white" opacity="0.7618382255952051" /><circle cx="894" cy="951" r="0.8534982433712524" fill="white" opacity="0.8412938772126591" /><circle cx="1209" cy="120" r="2.2016088005718544" fill="white" opacity="0.9707416694089582" /><circle cx="1471" cy="296" r="2.022844458232986" fill="white" opacity="0.6180953677322888" /><circle cx="538" cy="482" r="2.193065705636796" fill="white" opacity="0.9484458754676655" /><circle cx="1402" cy="336" r="2.112214340190566" fill="white" opacity="0.7554067954925616" /><circle cx="1919" cy="1008" r="1.0205857900343347" fill="white" opacity="0.9868981538228778" /><circle cx="968" cy="334" r="1.5133715579190254" fill="white" opacity="0.8282746963705823" /><circle cx="913" cy="184" r="2.3948641496952985" fill="white" opacity="0.9862460566735836" /><circle cx="249" cy="391" r="2.3379506184152077" fill="white" opacity="0.6161137388420154" /><circle cx="1889" cy="773" r="2.0455480126443426" fill="white" opacity="0.9072143818467768" /><circle cx="60" cy="376" r="2.4106959211559893" fill="white" opacity="0.6935603808104742" /><circle cx="1149" cy="1070" r="0.9938556075431886" fill="white" opacity="0.6883290729556653" /><circle cx="667" cy="249" r="1.696888162436144" fill="white" opacity="0.602529497027334" /><circle cx="664" cy="934" r="1.6281025616644078" fill="white" opacity="0.6803183398659924" /><circle cx="1586" cy="763" r="0.7532676849527398" fill="white" opacity="0.8339278890571892" /><circle cx="1623" cy="652" r="1.0772215773395357" fill="white" opacity="0.74194827348954" /><circle cx="1672" cy="496" r="1.6413926913834682" fill="white" opacity="0.9505091188811872" /><circle cx="1172" cy="661" r="2.2295925705672826" fill="white" opacity="0.7525779935287394" /><circle cx="327" cy="519" r="2.327055757290797" fill="white" opacity="0.9987982615506054" /><circle cx="1545" cy="231" r="0.5925205823476785" fill="white" opacity="0.8057468347249866" /><circle cx="294" cy="317" r="0.8598955807049093" fill="white" opacity="0.8111089295732992" /><circle cx="952" cy="547" r="2.2786523620825774" fill="white" opacity="0.7773194254942037" /><circle cx="866" cy="52" r="1.4131073733982031" fill="white" opacity="0.9937008876958816" /><circle cx="104" cy="381" r="1.2336071632032684" fill="white" opacity="0.6875829673154061" /><circle cx="159" cy="693" r="0.8788217564091327" fill="white" opacity="0.6897587466897837" /><circle cx="1297" cy="861" r="1.3596888783589922" fill="white" opacity="0.6952195353677246" /><circle cx="1263" cy="652" r="1.4704963160787659" fill="white" opacity="0.6122824834355142" /><circle cx="594" cy="427" r="2.0491142564715483" fill="white" opacity="0.7397492876358167" /><circle cx="1309" cy="826" r="1.372802054942015" fill="white" opacity="0.6930864071638004" /><circle cx="821" cy="1045" r="0.7113010651190754" fill="white" opacity="0.795065981653206" /><circle cx="1069" cy="538" r="0.5041210291257285" fill="white" opacity="0.8981203874779512" /><circle cx="1062" cy="682" r="2.4522207530112277" fill="white" opacity="0.719247838131633" /><circle cx="730" cy="14" r="1.6009833380439737" fill="white" opacity="0.8474580138028993" /><circle cx="1359" cy="851" r="0.7354945471714518" fill="white" opacity="0.7035516121012999" /><circle cx="1311" cy="182" r="2.4887852221071225" fill="white" opacity="0.8744191215318542" /><circle cx="1364" cy="731" r="0.5235204146506351" fill="white" opacity="0.8826061634933018" /><circle cx="1071" cy="520" r="1.7649410672152068" fill="white" opacity="0.725830573073909" /><circle cx="1739" cy="1062" r="1.1469321833852903" fill="white" opacity="0.7856746735448144" /><circle cx="93" cy="791" r="0.9216177670963113" fill="white" opacity="0.6451948332516398" /><circle cx="411" cy="654" r="0.6723669102590173" fill="white" opacity="0.8674507642947289" /><circle cx="157" cy="66" r="1.945543497539412" fill="white" opacity="0.8693818254051191" /><circle cx="648" cy="221" r="2.3893263228039996" fill="white" opacity="0.6885824649771464" /><circle cx="1120" cy="977" r="2.032360142497274" fill="white" opacity="0.6464324893757273" /><circle cx="1538" cy="13" r="0.7553166957357706" fill="white" opacity="0.8063317583797198" /><circle cx="704" cy="255" r="1.367328928945264" fill="white" opacity="0.6028127480187241" /><circle cx="1292" cy="384" r="1.866770108707795" fill="white" opacity="0.9984532926876079" /><circle cx="31" cy="668" r="1.8299316975644813" fill="white" opacity="0.6917288188118377" /><circle cx="1147" cy="356" r="2.1646040436449345" fill="white" opacity="0.7051680753122246" /><circle cx="1482" cy="958" r="1.7290009823134056" fill="white" opacity="0.9958476386196129" /><circle cx="399" cy="894" r="0.6612795201107995" fill="white" opacity="0.7093842217654176" /><circle cx="253" cy="926" r="0.5021227411719749" fill="white" opacity="0.8608169916467246" /><circle cx="1518" cy="46" r="2.0370495335897116" fill="white" opacity="0.7720461577081599" /><circle cx="154" cy="106" r="1.2342501602185856" fill="white" opacity="0.7525375372110478" /><circle cx="847" cy="898" r="0.910488615616236" fill="white" opacity="0.775831913579298" /><circle cx="810" cy="84" r="0.8055216193897758" fill="white" opacity="0.7346822937248111" /><circle cx="558" cy="328" r="1.995613333751333" fill="white" opacity="0.97435427467347" /><circle cx="837" cy="425" r="0.8611165136097574" fill="white" opacity="0.7621153443472624" /><circle cx="1509" cy="173" r="2.296005928611007" fill="white" opacity="0.917719240501446" /><circle cx="149" cy="214" r="0.973506357725826" fill="white" opacity="0.9210919099746153" /><circle cx="1069" cy="535" r="1.4507424338777286" fill="white" opacity="0.933083626218945" /><circle cx="1718" cy="250" r="1.3294611601382578" fill="white" opacity="0.864606632755868" /><circle cx="860" cy="597" r="0.8149361488993361" fill="white" opacity="0.9348050921428467" /><circle cx="1657" cy="713" r="1.3436022614303846" fill="white" opacity="0.7172189002682143" /><circle cx="1170" cy="54" r="1.3994580890660036" fill="white" opacity="0.6358389678319069" /><circle cx="365" cy="744" r="2.042522146515925" fill="white" opacity="0.8084013303897054" /><circle cx="744" cy="266" r="1.3698068506992693" fill="white" opacity="0.6490193089687776" /><circle cx="949" cy="847" r="0.7423212294258197" fill="white" opacity="0.6233684426365423" /><circle cx="804" cy="403" r="0.7730208815394166" fill="white" opacity="0.7440359380152923" /><circle cx="1501" cy="597" r="0.7085785493345527" fill="white" opacity="0.867703707549526" /><circle cx="1328" cy="315" r="1.5413402570360712" fill="white" opacity="0.8050103773990062" /><circle cx="597" cy="150" r="1.847239313708862" fill="white" opacity="0.665974260525926" /><circle cx="1419" cy="597" r="0.5483629766028291" fill="white" opacity="0.965146178565882" /><circle cx="1764" cy="138" r="1.8288854218875283" fill="white" opacity="0.6931025332366181" /></svg>